# xmcd CD database file
# Copyright (C) 1996 Ti Kan
#
# Track frame offsets:
#	187
#	15205
#	30077
#	44570
#	58897
#	77200
#	92377
#	109052
#	127162
#	144585
#	160995
#	182210
#	199885
#	221307
#	234175
#	246855
#	267047
#	286867
#	303030
#	317975
# Disc length: 4479 seconds
#
# Revision: 1
# Processed by: cddbd v1.4PL0 Copyright (c) Steve Scherf et al.
# Submitted via: CDCOPY 4.900
#
DISCID=0c117d14
DTITLE=Vince Gill - Essential
DYEAR=1900
DGENRE=
TTITLE0=Victim Of Life's Circumstances
TTITLE1=Oh Carolina
TTITLE2=I've Been Hearing Things About You
TTITLE3=Turn Me Loose
TTITLE4=The Radio
TTITLE5=Livin' The Way I Do
TTITLE6=Midnight Train
TTITLE7=True Love
TTITLE8=Ain't It Always That Way
TTITLE9=Oklahoma Borderline
TTITLE10=With You
TTITLE11=The Way Back Home
TTITLE12=Losing Your Love
TTITLE13=Everybody's Sweetheart
TTITLE14=Don't Say That You Love Me
TTITLE15=Something's Missing
TTITLE16=Colder Than Winter
TTITLE17=Cinderella
TTITLE18=Let's Do Something
TTITLE19=I Never Knew Lonely
EXTD=
EXTT0=
EXTT1=
EXTT2=
EXTT3=
EXTT4=
EXTT5=
EXTT6=
EXTT7=
EXTT8=
EXTT9=
EXTT10=
EXTT11=
EXTT12=
EXTT13=
EXTT14=
EXTT15=
EXTT16=
EXTT17=
EXTT18=
EXTT19=
PLAYORDER=
